<svg width="20" height="14" viewBox="0 0 20 14" fill="none" xmlns="http://www.w3.org/2000/svg">
<path fill-rule="evenodd" clip-rule="evenodd" d="M15.665 0.124648C14.73 0.0696483 12.805 0.0146484 9.89002 0.0146484H9.50501C6.70001 0.0146484 4.83004 0.0696483 3.89504 0.179648C2.63004 0.289648 1.75001 0.619648 1.25501 1.05965C0.815008 1.44465 0.485021 2.15965 0.375021 3.09465C0.320021 3.69965 0.265015 4.96465 0.265015 6.88965V7.16465C0.265015 8.97965 0.320008 10.2446 0.430008 10.8496C0.595008 11.7296 0.870035 12.3896 1.42003 12.7746C1.97004 13.2146 2.90502 13.4896 4.22502 13.5996C5.16002 13.6546 7.08502 13.7096 10 13.7096H10.385C13.19 13.7096 15.06 13.6546 15.995 13.5446C17.26 13.4346 18.14 13.1046 18.635 12.6646C19.075 12.2796 19.405 11.5646 19.515 10.6296C19.57 10.0246 19.625 8.75965 19.625 6.83465V6.55965C19.625 4.74465 19.57 3.47965 19.46 2.87465C19.295 1.99465 19.02 1.33465 18.47 0.949648C17.92 0.509648 16.985 0.234648 15.665 0.124648ZM13.52 6.88965L7.47004 10.5196V3.25965L13.52 6.88965Z" fill="#F6F5EF"/>
</svg>
